<?xml version="1.0" standalone="no"?>
<!DOCTYPE svg PUBLIC "-//W3C//DTD SVG 20010904//EN"
 "http://www.w3.org/TR/2001/REC-SVG-20010904/DTD/svg10.dtd">
<svg version="1.0" xmlns="http://www.w3.org/2000/svg"
 width="418.000000pt" height="418.000000pt" viewBox="0 0 418.000000 418.000000"
 preserveAspectRatio="xMidYMid meet">
<metadata>
Created by potrace 1.14, written by Peter Selinger 2001-2017
</metadata>
<g transform="translate(0.000000,418.000000) scale(0.100000,-0.100000)"
fill="#000000" stroke="none">
<path d="M3278 3624 c-2 -1 -34 -5 -73 -9 -159 -14 -387 -55 -525 -95 -19 -5
-37 -10 -40 -10 -10 0 -228 -79 -290 -105 -289 -122 -560 -304 -779 -525 -299
-302 -497 -643 -604 -1040 -20 -74 -39 -152 -43 -174 -3 -21 -8 -48 -10 -60
-2 -11 -7 -41 -10 -66 -3 -25 -8 -54 -10 -65 -21 -109 -20 -528 1 -630 3 -11
7 -38 10 -60 9 -65 27 -156 31 -152 2 2 6 19 8 38 10 78 18 135 22 154 2 10 6
37 9 60 3 22 10 63 15 90 5 28 11 66 14 85 7 50 63 295 82 360 54 188 60 205
120 330 86 179 190 326 329 465 100 100 138 132 262 221 106 76 168 113 108
64 -78 -64 -251 -247 -307 -326 -175 -245 -373 -611 -394 -729 -1 -6 -9 -37
-19 -70 -27 -95 -34 -126 -44 -190 -29 -176 -32 -222 -18 -233 22 -17 182 -98
267 -135 240 -103 459 -151 680 -151 284 0 446 74 713 324 37 35 91 94 118
130 111 147 239 466 273 680 8 51 16 92 21 115 2 11 7 43 10 70 3 28 8 59 10
70 2 11 7 43 10 70 3 28 8 59 10 71 3 11 7 43 10 70 3 27 8 56 10 64 2 8 7 40
10 70 3 30 7 66 10 80 2 14 7 45 10 70 3 25 8 52 10 60 2 8 7 40 10 70 3 30 8
62 10 70 2 8 7 35 10 60 34 239 165 471 394 697 90 89 101 103 80 104 -13 1
-37 3 -54 5 -32 5 -463 12 -467 8z"/>
</g>
</svg>
