<?xml version="1.0" standalone="no"?>
<!DOCTYPE svg PUBLIC "-//W3C//DTD SVG 20010904//EN"
 "http://www.w3.org/TR/2001/REC-SVG-20010904/DTD/svg10.dtd">
<svg version="1.0" xmlns="http://www.w3.org/2000/svg"
 width="418.000000pt" height="418.000000pt" viewBox="0 0 418.000000 418.000000"
 preserveAspectRatio="xMidYMid meet">
<metadata>
Created by potrace 1.14, written by Peter Selinger 2001-2017
</metadata>
<g transform="translate(0.000000,418.000000) scale(0.100000,-0.100000)"
fill="#000000" stroke="none">
<path d="M3298 4165 c-2 -2 -43 -6 -93 -9 -49 -4 -97 -9 -105 -11 -8 -2 -35
-6 -60 -9 -276 -36 -667 -161 -882 -282 -33 -19 -62 -34 -64 -34 -3 0 -48 -28
-102 -62 -577 -367 -968 -950 -1076 -1603 -29 -174 -38 -284 -39 -445 0 -102
12 -310 18 -320 2 -3 6 -33 10 -65 7 -68 32 -170 35 -140 1 11 3 29 5 40 2 11
7 40 10 65 3 25 7 56 10 70 3 14 7 41 10 60 3 19 7 46 10 60 2 14 7 41 9 60 3
19 8 46 11 60 3 14 8 41 11 60 15 86 77 333 105 420 74 231 230 488 402 663
82 84 236 217 251 217 3 0 15 8 25 17 11 9 48 34 83 55 43 27 52 30 28 11 -69
-55 -227 -215 -277 -281 -135 -179 -322 -494 -382 -644 -29 -75 -85 -257 -95
-313 -21 -113 -36 -207 -40 -253 -5 -51 -4 -53 27 -73 151 -93 490 -223 642
-246 17 -2 36 -6 44 -9 25 -8 155 -19 241 -18 291 0 475 87 737 349 118 118
193 242 268 441 54 143 96 297 110 408 3 15 7 35 9 45 3 9 8 43 11 76 4 33 8
67 10 75 2 8 7 35 10 60 3 25 12 88 20 140 7 52 17 119 20 149 4 30 8 62 10
71 2 9 6 41 10 70 4 29 8 61 10 71 2 9 7 39 11 66 3 26 8 55 9 63 2 8 6 35 10
60 19 115 33 164 70 245 75 166 180 311 329 458 71 69 93 97 80 98 -10 0 -30
3 -44 5 -30 5 -457 13 -462 9z"/>
<path d="M2086 1021 c-30 -31 -38 -71 -24 -114 13 -36 45 -57 88 -57 47 0 77
22 89 66 28 101 -83 178 -153 105z"/>
<path d="M184 996 c-40 -18 -77 -53 -100 -96 -17 -32 -19 -63 -20 -333 l-2
-297 104 0 104 0 0 254 c0 221 2 255 16 267 34 28 40 -7 39 -270 l-1 -251 103
0 103 0 1 38 c0 20 1 135 1 254 0 174 3 219 14 229 35 29 39 -1 39 -265 l0
-256 102 0 c91 0 103 2 103 18 6 266 0 554 -10 590 -41 135 -210 178 -313 80
l-41 -39 -20 25 c-52 61 -148 84 -222 52z"/>
<path d="M4022 974 c-56 -28 -91 -64 -124 -128 -20 -38 -22 -58 -25 -309 l-3
-267 98 0 98 0 -1 87 c-1 49 1 94 3 101 2 7 21 12 43 12 l38 0 0 104 0 105
-42 3 c-43 3 -43 3 -38 53 1 20 41 55 62 55 16 0 18 12 18 105 l0 105 -37 0
c-21 0 -61 -12 -90 -26z"/>
<path d="M1770 793 c2 -284 2 -279 -17 -302 -28 -33 -69 -36 -98 -7 -29 30
-32 65 -7 96 19 23 68 35 78 19 14 -24 19 0 19 98 l0 108 -40 3 c-139 12 -267
-118 -267 -272 -1 -80 24 -139 81 -199 129 -135 355 -86 421 90 20 54 22 76
22 293 0 129 0 243 -1 253 -1 15 -13 17 -96 17 l-96 0 1 -197z"/>
<path d="M2354 723 c2 -148 6 -277 9 -288 29 -104 116 -165 232 -165 l53 0 1
105 c1 95 0 105 -16 105 -26 0 -68 23 -69 38 -1 7 -2 116 -3 242 l-1 230 -105
0 -104 0 3 -267z"/>
<path d="M1029 791 c-207 -92 -218 -403 -17 -506 71 -37 186 -30 260 15 l28
17 -51 66 c-54 70 -59 73 -89 57 -11 -6 -30 -8 -43 -5 -72 19 -74 184 -2 217
29 13 69 -8 78 -41 5 -19 1 -21 -44 -21 -27 0 -50 -3 -50 -7 -2 -12 -2 -46 -1
-65 2 -16 16 -18 147 -18 l146 0 -2 53 c-3 106 -77 211 -171 242 -56 19 -140
17 -189 -4z"/>
<path d="M2834 787 c-85 -46 -126 -95 -148 -181 -27 -103 0 -203 76 -276 85
-81 226 -94 320 -28 l28 19 -57 70 c-31 39 -59 66 -62 60 -3 -5 -18 -12 -32
-16 -44 -11 -79 28 -85 95 -5 47 -2 60 18 90 30 45 69 50 98 13 29 -37 25 -43
-30 -43 -51 0 -52 -2 -52 -45 0 -47 -6 -45 148 -45 l147 0 -5 64 c-9 106 -76
200 -166 232 -59 21 -150 17 -198 -9z"/>
<path d="M3415 797 c-79 -31 -141 -95 -165 -172 -18 -54 -16 -152 3 -198 42
-99 121 -157 226 -165 l66 -4 1 103 1 104 -44 1 c-46 0 -58 9 -69 52 -15 54
44 105 93 83 36 -16 43 -51 43 -197 l0 -134 98 0 97 0 -1 139 c-2 164 -9 222
-35 272 -24 48 -89 103 -138 117 -48 15 -137 14 -176 -1z"/>
<path d="M2051 535 l-1 -265 97 0 98 0 0 265 0 265 -96 0 -96 0 -2 -265z"/>
</g>
</svg>
